<svg width="54" height="54" viewBox="0 0 54 54" fill="none" xmlns="http://www.w3.org/2000/svg">
<rect x="0.626172" y="0.175" width="52.7988" height="52.7988" rx="16.825" stroke="#CED5DC" stroke-width="0.35"/>
<path fill-rule="evenodd" clip-rule="evenodd" d="M31.4546 27.5961C31.4546 29.9481 29.5479 31.8548 27.1959 31.8548C24.8439 31.8548 22.9372 29.9481 22.9372 27.5961C22.9372 25.244 24.8439 23.3373 27.1959 23.3373C29.5479 23.3373 31.4546 25.244 31.4546 27.5961ZM30.4325 27.5961C30.4325 29.3836 28.9834 30.8327 27.1959 30.8327C25.4084 30.8327 23.9593 29.3836 23.9593 27.5961C23.9593 25.8085 25.4084 24.3594 27.1959 24.3594C28.9834 24.3594 30.4325 25.8085 30.4325 27.5961Z" fill="#34C897"/>
<path fill-rule="evenodd" clip-rule="evenodd" d="M27.0256 17.7158C29.1927 17.7158 31.1022 18.8187 32.2235 20.4938H34.665C35.4322 20.4938 36.054 21.1157 36.054 21.8828V34.3838C36.054 35.1509 35.4322 35.7728 34.665 35.7728H19.3861C18.6189 35.7728 17.9971 35.1509 17.9971 34.3838V21.8828C17.9971 21.1157 18.6189 20.4938 19.3861 20.4938H21.8276C22.9489 18.8187 24.8584 17.7158 27.0256 17.7158ZM22.3734 21.5159L22.677 21.0624C23.6166 19.6586 25.2138 18.7379 27.0256 18.7379C28.8373 18.7379 30.4345 19.6586 31.3741 21.0624L31.6777 21.5159H34.665C34.8677 21.5159 35.032 21.6802 35.032 21.8828V34.3838C35.032 34.5864 34.8677 34.7507 34.665 34.7507H19.3861C19.1834 34.7507 19.0192 34.5864 19.0192 34.3838V21.8828C19.0192 21.6802 19.1834 21.5159 19.3861 21.5159H22.3734Z" fill="#34C897"/>
</svg>
