<svg width="15" height="18" viewBox="0 0 15 18" fill="none" xmlns="http://www.w3.org/2000/svg">
<path d="M7.67966 0L6.22876 7.13962L7.67959 17.2363L12.8558 12.1879C14.1805 10.8959 14.9999 9.11102 14.9999 7.13955C14.9999 3.19645 11.7225 0 7.67966 0V0Z" fill="#E50058"/>
<path d="M0.359375 7.13947C0.359375 9.11095 1.17876 10.8959 2.50344 12.1878L7.67966 17.2362V0C3.63684 0 0.359375 3.19645 0.359375 7.13947Z" fill="#FF415B"/>
<path d="M7.67971 2.12305L6.22888 7.14028L7.67971 12.1575C10.5162 12.1575 12.824 9.90679 12.824 7.14028C12.824 4.37376 10.5162 2.12305 7.67971 2.12305Z" fill="#FF415B"/>
<path d="M2.5354 7.14028C2.5354 9.90679 4.84311 12.1575 7.6797 12.1575V2.12305C4.84311 2.12305 2.5354 4.37376 2.5354 7.14028Z" fill="#FF7C48"/>
<path d="M10.6478 7.139C10.6478 5.54275 9.3163 4.24414 7.67971 4.24414L6.22888 7.139L7.67971 10.0339C9.3163 10.0339 10.6478 8.73524 10.6478 7.139Z" fill="#E1EBF0"/>
<path d="M4.71143 7.139C4.71143 8.73524 6.04293 10.0339 7.6796 10.0339V4.24414C6.04293 4.24414 4.71143 5.54275 4.71143 7.139Z" fill="#FFF5F5"/>
</svg>
