<svg width="19" height="19" viewBox="0 0 19 19" fill="none" xmlns="http://www.w3.org/2000/svg">
<path d="M10.9965 5.99971V9.99971C10.9965 10.2697 10.8865 10.5197 10.7065 10.7097L7.9165 13.4997C7.5265 13.8897 6.8965 13.8897 6.5065 13.4997C6.1165 13.1097 6.1165 12.4797 6.5065 12.0897L9.0065 9.58972V5.99971C9.0065 5.44971 9.4565 4.99971 10.0065 4.99971C10.5465 4.99971 10.9965 5.44971 10.9965 5.99971ZM1.8465 2.84971L3.1565 4.15971C4.7565 2.27971 7.1165 1.06971 9.7565 0.999715C14.6465 0.879715 18.8565 4.85971 18.9965 9.73971C19.1365 14.8297 15.0565 18.9997 9.9965 18.9997C5.7965 18.9997 2.2765 16.1197 1.2765 12.2397C1.1165 11.6097 1.6065 10.9997 2.2565 10.9997C2.7065 10.9997 3.1065 11.2997 3.2165 11.7297C4.0865 15.1397 7.4665 17.5597 11.2665 16.8897C14.0465 16.3997 16.3065 14.1797 16.8465 11.4197C17.7365 6.93971 14.3165 2.99971 9.9965 2.99971C7.8165 2.99971 5.8765 4.01971 4.5865 5.58971L6.1365 7.13971C6.4565 7.45971 6.2365 7.99971 5.7865 7.99971H1.4965C1.2165 7.99971 0.996504 7.77971 0.996504 7.49971V3.20971C0.996504 2.75971 1.5365 2.53971 1.8465 2.84971Z" fill="#747474"/>
</svg>
