<svg width="24" height="24" viewBox="0 0 24 24" fill="none" xmlns="http://www.w3.org/2000/svg">
<path d="M21.4032 6.7314H21.3938C21.2785 6.53007 21.1098 6.36458 20.9063 6.25327L12.6563 1.5939C12.4587 1.48303 12.236 1.4248 12.0094 1.4248C11.7828 1.4248 11.5601 1.48303 11.3625 1.5939L3.11253 6.23452C2.92509 6.34085 2.76719 6.49231 2.65315 6.67515L2.62503 6.71265H2.61565C2.50752 6.9113 2.44959 7.13337 2.4469 7.35952V16.6033C2.44659 16.8358 2.50806 17.0642 2.62502 17.2652C2.74197 17.4661 2.91021 17.6324 3.11253 17.747L11.3625 22.3876C11.5387 22.4847 11.7338 22.5423 11.9344 22.5564H12.0938C12.2912 22.5409 12.483 22.4834 12.6563 22.3876L20.9063 17.747C21.1086 17.6324 21.2768 17.4661 21.3938 17.2652C21.5107 17.0642 21.5722 16.8358 21.5719 16.6033V7.37827C21.5751 7.15136 21.5168 6.92782 21.4032 6.7314ZM11.9157 2.5689L12.0094 2.55015L12.1032 2.5689L19.8657 6.93765L16.6125 8.78452L8.66253 4.39702L11.9157 2.5689ZM12.0938 11.3533L4.16253 6.93765L7.5094 5.05327L15.4688 9.44077L12.0938 11.3533ZM3.66565 16.7908C3.63744 16.7724 3.61416 16.7475 3.59781 16.718C3.58147 16.6886 3.57258 16.6557 3.5719 16.622V7.8939L11.5313 12.3283L11.4563 21.1689L3.66565 16.7908ZM20.3532 16.7908L12.5813 21.1595L12.6563 12.3283L16.0407 10.4064V14.297C16.0407 14.4462 16.0999 14.5893 16.2054 14.6948C16.3109 14.8003 16.454 14.8595 16.6032 14.8595C16.7523 14.8595 16.8954 14.8003 17.0009 14.6948C17.1064 14.5893 17.1657 14.4462 17.1657 14.297V9.7689L20.4469 7.90327V16.622C20.4462 16.6557 20.4373 16.6886 20.421 16.718C20.4046 16.7475 20.3814 16.7724 20.3532 16.7908Z" fill="#4D4D4D"/>
</svg>
