<svg width="18" height="19" viewBox="0 0 18 19" fill="none" xmlns="http://www.w3.org/2000/svg">
<path d="M15.1148 10.729C14.9424 10.5368 14.7323 10.3822 14.4974 10.2746C14.2625 10.1671 14.008 10.109 13.7497 10.104C13.4896 10.1101 13.2333 10.1682 12.9961 10.2748C12.7588 10.3815 12.5454 10.5346 12.3685 10.725L11.0915 11.993C10.9913 11.937 10.8811 11.884 10.781 11.832C10.6358 11.759 10.4985 11.691 10.3804 11.618C9.11518 10.7969 7.99268 9.7751 7.05711 8.593C6.6249 8.06865 6.25984 7.49254 5.9704 6.878C6.30192 6.578 6.60841 6.261 6.90688 5.959C7.02006 5.846 7.13323 5.729 7.24641 5.616C7.44609 5.44235 7.60617 5.22798 7.71586 4.98734C7.82555 4.7467 7.88231 4.48539 7.88231 4.221C7.88231 3.95661 7.82555 3.6953 7.71586 3.45466C7.60617 3.21402 7.44609 2.99965 7.24641 2.826L6.14468 1.726C6.01948 1.601 5.89028 1.472 5.76908 1.343C5.5267 1.093 5.26829 0.835 5.00989 0.593C4.83503 0.409468 4.62533 0.262516 4.39302 0.160707C4.16071 0.0588985 3.91043 0.00426764 3.65676 0C3.13753 0.00951604 2.64288 0.222509 2.27959 0.593L2.27157 0.601L0.898409 1.983C0.38913 2.48186 0.0778414 3.14786 0.0220276 3.858C-0.0247841 4.88093 0.151554 5.90181 0.538842 6.85C1.2622 8.73031 2.30775 10.4706 3.62871 11.993C5.36039 14.0746 7.51797 15.7624 9.95668 16.943C11.0644 17.5142 12.2706 17.8705 13.5113 17.993C13.5964 17.993 13.6846 18.001 13.7657 18.001C14.2034 18.0115 14.6381 17.9276 15.0404 17.7551C15.4426 17.5825 15.8028 17.3253 16.0964 17.001C16.0964 16.993 16.1084 16.989 16.1124 16.981C16.3344 16.7248 16.5705 16.4811 16.8195 16.251C16.9928 16.086 17.1711 15.912 17.3443 15.731C17.724 15.3625 17.9431 14.8596 17.9543 14.331C17.949 14.0706 17.8912 13.8139 17.7844 13.5763C17.6775 13.3386 17.5237 13.125 17.3323 12.948L15.1148 10.729ZM16.5611 14.975C16.4038 15.144 16.2416 15.298 16.0683 15.467C15.7945 15.7218 15.5344 15.9908 15.2891 16.273C15.0984 16.4842 14.8635 16.6511 14.6012 16.7619C14.3388 16.8726 14.0553 16.9245 13.7707 16.914C13.7106 16.914 13.6455 16.914 13.5854 16.914C12.4851 16.8007 11.4163 16.4804 10.4354 15.97C8.13627 14.857 6.10174 13.2665 4.46803 11.305C3.22706 9.87318 2.24429 8.23726 1.56346 6.47C1.22443 5.67334 1.06968 4.81062 1.11074 3.946C1.14202 3.49118 1.34032 3.06388 1.66762 2.746L3.04479 1.371C3.20546 1.20103 3.42508 1.09873 3.65876 1.085C3.88481 1.09822 4.09663 1.19948 4.24869 1.367L4.26071 1.379C4.5071 1.609 4.74146 1.847 4.98785 2.101C5.11305 2.23 5.24225 2.359 5.37146 2.492L6.47119 3.593C6.57046 3.66432 6.65132 3.75819 6.70709 3.86687C6.76286 3.97554 6.79195 4.09589 6.79195 4.218C6.79195 4.34011 6.76286 4.46046 6.70709 4.56914C6.65132 4.67781 6.57046 4.77168 6.47119 4.843C6.35401 4.96 6.24083 5.077 6.12364 5.19C5.78411 5.537 5.4616 5.859 5.11005 6.174C5.10203 6.182 5.09402 6.186 5.09001 6.194C4.96559 6.30684 4.87875 6.455 4.84115 6.61857C4.80355 6.78214 4.817 6.95328 4.87968 7.109L4.8917 7.145C5.22306 7.91116 5.66143 8.62659 6.19375 9.27C7.20209 10.5452 8.41385 11.6459 9.78041 12.528C9.94257 12.6265 10.1097 12.7167 10.2812 12.798C10.4264 12.871 10.5636 12.939 10.6818 13.012C10.6979 13.02 10.7139 13.032 10.7299 13.04C10.8535 13.1048 10.9909 13.139 11.1305 13.14C11.2463 13.1371 11.3603 13.1111 11.4658 13.0633C11.5713 13.0155 11.6661 12.9471 11.7445 12.862L13.1317 11.493C13.2888 11.3184 13.5072 11.2109 13.7416 11.193C13.8536 11.1998 13.963 11.2294 14.063 11.2799C14.1631 11.3305 14.2518 11.401 14.3236 11.487L14.3316 11.495L16.5571 13.717C16.6527 13.7916 16.73 13.887 16.7833 13.9958C16.8366 14.1046 16.8645 14.2241 16.8647 14.3453C16.865 14.4664 16.8378 14.586 16.785 14.6951C16.7322 14.8042 16.6553 14.8999 16.5601 14.975H16.5611Z" fill="#747474"/>
</svg>
