<svg width="16" height="19" viewBox="0 0 16 19" fill="none" xmlns="http://www.w3.org/2000/svg">
<path d="M7.8603 0L6.30237 7.68879L7.86022 18.5621L13.4183 13.1254C14.8407 11.7341 15.7205 9.81183 15.7205 7.68872C15.7206 3.44232 12.2015 0 7.8603 0Z" fill="#3193B3"/>
<path d="M0 7.68865C0 9.81176 0.879829 11.734 2.30224 13.1253L7.86031 18.5621V0C3.51926 0 0 3.44232 0 7.68865Z" fill="#0B799D"/>
<path d="M7.86059 2.28613L6.30273 7.6893L7.86059 13.0924C10.9063 13.0924 13.3844 10.6687 13.3844 7.6893C13.3844 4.70997 10.9063 2.28613 7.86059 2.28613Z" fill="#0B799D"/>
<path d="M2.33655 7.6893C2.33655 10.6687 4.81451 13.0924 7.86035 13.0924V2.28613C4.81451 2.28613 2.33655 4.70997 2.33655 7.6893Z" fill="#308DAB"/>
<path d="M11.0477 7.68883C11.0477 5.9698 9.61791 4.57129 7.86059 4.57129L6.30273 7.68883L7.86059 10.8063C9.61791 10.8063 11.0477 9.40787 11.0477 7.68883Z" fill="#E1EBF0"/>
<path d="M4.67346 7.68883C4.67346 9.40787 6.1032 10.8063 7.86061 10.8063V4.57129C6.1032 4.57129 4.67346 5.9698 4.67346 7.68883Z" fill="#FFF5F5"/>
</svg>
